<mxfile host="drawio-plugin" modified="2022-10-14T09:59:30.241Z" agent="5.0 (Macintosh; Intel Mac OS X 12_5_0) AppleWebKit/537.36 (KHTML, like Gecko) Chrome/89.0.4389.114 Safari/537.36" etag="t915hpNaSJCvbvUCLCIH" version="15.5.4" type="embed" pages="2"><diagram id="Gak5x3cFnnJdtevRshOn" name="Page-1"><mxGraphModel dx="2160" dy="962" grid="1" gridSize="10" guides="1" tooltips="1" connect="1" arrows="1" fold="1" page="1" pageScale="1" pageWidth="850" pageHeight="1100" math="0" shadow="0"><root><mxCell id="0"/><mxCell id="1" parent="0"/><mxCell id="15" value="&lt;font color=&quot;#ff3333&quot;&gt;client2&lt;/font&gt;" style="text;html=1;strokeColor=none;fillColor=none;align=center;verticalAlign=middle;whiteSpace=wrap;rounded=0;" parent="1" vertex="1"><mxGeometry x="564.68" width="77.5" height="40" as="geometry"/></mxCell><mxCell id="65" value="&lt;font color=&quot;#ff3333&quot;&gt;client3&lt;/font&gt;" style="text;html=1;strokeColor=none;fillColor=none;align=center;verticalAlign=middle;whiteSpace=wrap;rounded=0;" vertex="1" parent="1"><mxGeometry x="672.5" width="77.5" height="40" as="geometry"/></mxCell><mxCell id="66" value="" style="whiteSpace=wrap;html=1;aspect=fixed;fillColor=#d80073;fontColor=#ffffff;strokeColor=#A50040;" vertex="1" parent="1"><mxGeometry x="70" y="80" width="730" height="730" as="geometry"/></mxCell><mxCell id="67" value="&lt;b&gt;&lt;font color=&quot;#00cc00&quot;&gt;1.cid++&lt;/font&gt;&lt;/b&gt;" style="text;html=1;strokeColor=none;fillColor=none;align=center;verticalAlign=middle;whiteSpace=wrap;rounded=0;" vertex="1" parent="1"><mxGeometry x="80" y="90" width="60" height="30" as="geometry"/></mxCell><mxCell id="68" value="" style="whiteSpace=wrap;html=1;aspect=fixed;fontColor=#FF3333;fillColor=#3399FF;" vertex="1" parent="1"><mxGeometry x="80" y="130" width="480" height="480" as="geometry"/></mxCell><mxCell id="70" value="&lt;font color=&quot;#00cc66&quot;&gt;......&lt;/font&gt;" style="rounded=1;whiteSpace=wrap;html=1;fontColor=#FF3333;fillColor=#3399FF;direction=south;" vertex="1" parent="1"><mxGeometry x="570" y="130" width="80" height="480" as="geometry"/></mxCell><mxCell id="71" value="&lt;font color=&quot;#cccc00&quot;&gt;........&lt;/font&gt;" style="rounded=1;whiteSpace=wrap;html=1;fontColor=#FF3333;fillColor=#3399FF;direction=south;" vertex="1" parent="1"><mxGeometry x="680" y="130" width="70" height="470" as="geometry"/></mxCell><mxCell id="77" value="" style="shape=flexArrow;endArrow=classic;startArrow=classic;html=1;rounded=0;fontColor=#FF3333;exitX=0.348;exitY=0.005;exitDx=0;exitDy=0;exitPerimeter=0;fillColor=#6a00ff;strokeColor=#3700CC;width=10;endSize=7.63;" edge="1" parent="1" source="68"><mxGeometry width="100" height="100" relative="1" as="geometry"><mxPoint x="130" y="150" as="sourcePoint"/><mxPoint x="247" y="43" as="targetPoint"/></mxGeometry></mxCell><mxCell id="78" value="" style="shape=flexArrow;endArrow=classic;startArrow=classic;html=1;rounded=0;fontColor=#FF3333;entryX=0.5;entryY=1;entryDx=0;entryDy=0;exitX=0.348;exitY=0.005;exitDx=0;exitDy=0;exitPerimeter=0;fillColor=#6a00ff;strokeColor=#3700CC;" edge="1" parent="1"><mxGeometry width="100" height="100" relative="1" as="geometry"><mxPoint x="715.6800000000001" y="129.99999999999991" as="sourcePoint"/><mxPoint x="714.3199999999999" y="40.9" as="targetPoint"/></mxGeometry></mxCell><mxCell id="79" value="" style="shape=flexArrow;endArrow=classic;startArrow=classic;html=1;rounded=0;fontColor=#FF3333;entryX=0.5;entryY=1;entryDx=0;entryDy=0;exitX=0.348;exitY=0.005;exitDx=0;exitDy=0;exitPerimeter=0;fillColor=#6a00ff;strokeColor=#3700CC;" edge="1" parent="1"><mxGeometry width="100" height="100" relative="1" as="geometry"><mxPoint x="604.11" y="129.99999999999991" as="sourcePoint"/><mxPoint x="602.7499999999999" y="40.9" as="targetPoint"/></mxGeometry></mxCell><mxCell id="80" value="&lt;font color=&quot;#ffccff&quot;&gt;1.若是conn1第一次链接进来，给conn1随机生成secretKey，gateway保存并且发送给client1&lt;/font&gt;" style="text;html=1;strokeColor=none;fillColor=none;align=center;verticalAlign=middle;whiteSpace=wrap;rounded=0;fontColor=#FF3333;" vertex="1" parent="1"><mxGeometry x="90" y="140" width="280" height="40" as="geometry"/></mxCell><mxCell id="81" value="&lt;font color=&quot;#ffccff&quot;&gt;2.组装client1与logic的链接信息&lt;/font&gt;" style="text;html=1;strokeColor=none;fillColor=none;align=center;verticalAlign=middle;whiteSpace=wrap;rounded=0;fontColor=#FF3333;" vertex="1" parent="1"><mxGeometry x="90" y="180" width="190" height="20" as="geometry"/></mxCell><mxCell id="82" value="type client1 struct {&amp;nbsp; &amp;nbsp; &amp;nbsp; &amp;nbsp; &amp;nbsp; &amp;nbsp; &amp;nbsp; &amp;nbsp; &amp;nbsp; &amp;nbsp; &amp;nbsp; &amp;nbsp; &amp;nbsp; &amp;nbsp; &amp;nbsp;&lt;br&gt;conn1&amp;nbsp; &amp;nbsp; &amp;nbsp; &amp;nbsp; &amp;nbsp; &amp;nbsp; &amp;nbsp; &amp;nbsp; &amp;nbsp; &amp;nbsp; &amp;nbsp; &amp;nbsp; &amp;nbsp; &amp;nbsp; &amp;nbsp; &amp;nbsp; &amp;nbsp; &amp;nbsp; &amp;nbsp; &amp;nbsp; &amp;nbsp; &amp;nbsp;&amp;nbsp;&lt;br&gt;secretKey1&amp;nbsp; &amp;nbsp; &amp;nbsp; &amp;nbsp; &amp;nbsp; &amp;nbsp; &amp;nbsp; &amp;nbsp; &amp;nbsp; &amp;nbsp; &amp;nbsp; &amp;nbsp; &amp;nbsp; &amp;nbsp; &amp;nbsp; &amp;nbsp; &amp;nbsp; &amp;nbsp;&amp;nbsp;&lt;br&gt;cid1&amp;nbsp; &amp;nbsp; &amp;nbsp; &amp;nbsp; &amp;nbsp; &amp;nbsp; &amp;nbsp; &amp;nbsp; &amp;nbsp; &amp;nbsp; &amp;nbsp; &amp;nbsp; &amp;nbsp; &amp;nbsp; &amp;nbsp; &amp;nbsp; &amp;nbsp; &amp;nbsp; &amp;nbsp; &amp;nbsp; &amp;nbsp; &amp;nbsp; &amp;nbsp; &amp;nbsp;&amp;nbsp;&lt;br&gt;outchan&amp;nbsp; &amp;nbsp; &amp;nbsp; &amp;nbsp; &amp;nbsp; &amp;nbsp; &amp;nbsp; &amp;nbsp; &amp;nbsp; &amp;nbsp; &amp;nbsp; &amp;nbsp; &amp;nbsp; &amp;nbsp; &amp;nbsp; &amp;nbsp; &amp;nbsp; &amp;nbsp; &amp;nbsp; &amp;nbsp; &amp;nbsp;&amp;nbsp;&lt;br&gt;}&amp;nbsp; &amp;nbsp; &amp;nbsp; &amp;nbsp; &amp;nbsp; &amp;nbsp; &amp;nbsp; &amp;nbsp; &amp;nbsp; &amp;nbsp; &amp;nbsp; &amp;nbsp; &amp;nbsp; &amp;nbsp; &amp;nbsp; &amp;nbsp; &amp;nbsp; &amp;nbsp; &amp;nbsp; &amp;nbsp; &amp;nbsp; &amp;nbsp; &amp;nbsp; &amp;nbsp; &amp;nbsp; &amp;nbsp; &amp;nbsp; &amp;nbsp;&amp;nbsp;" style="text;html=1;strokeColor=none;fillColor=none;align=center;verticalAlign=middle;whiteSpace=wrap;rounded=0;fontColor=#FFCCFF;" vertex="1" parent="1"><mxGeometry x="100" y="210" width="220" height="100" as="geometry"/></mxCell><mxCell id="107" style="edgeStyle=orthogonalEdgeStyle;rounded=0;orthogonalLoop=1;jettySize=auto;html=1;entryX=0.5;entryY=0;entryDx=0;entryDy=0;fontColor=#994C00;" edge="1" parent="1" source="83" target="106"><mxGeometry relative="1" as="geometry"/></mxCell><mxCell id="83" value="" style="whiteSpace=wrap;html=1;aspect=fixed;fontColor=#FFCCFF;fillColor=#FFF4C3;" vertex="1" parent="1"><mxGeometry x="97.5" y="350" width="150" height="150" as="geometry"/></mxCell><mxCell id="84" value="" style="whiteSpace=wrap;html=1;aspect=fixed;fontColor=#FFCCFF;fillColor=#FFF4C3;" vertex="1" parent="1"><mxGeometry x="387.5" y="350" width="120" height="120" as="geometry"/></mxCell><mxCell id="85" value="3.启动两个goroutine ，一个不断从 conn1读消息，一个outchan读数据，写入conn1&amp;nbsp; &amp;nbsp; &amp;nbsp; &amp;nbsp; &amp;nbsp; &amp;nbsp; &amp;nbsp;" style="text;html=1;strokeColor=none;fillColor=none;align=center;verticalAlign=middle;whiteSpace=wrap;rounded=0;fontColor=#FFCCFF;" vertex="1" parent="1"><mxGeometry x="105" y="320" width="295" height="20" as="geometry"/></mxCell><mxCell id="87" value="&lt;font color=&quot;#994c00&quot;&gt;1.从conn1读消息&amp;nbsp; &amp;nbsp; &amp;nbsp; &amp;nbsp; &amp;nbsp; &amp;nbsp;&lt;br&gt;2.先解压，再根据&amp;nbsp; &amp;nbsp; &amp;nbsp; &amp;nbsp; &amp;nbsp; &amp;nbsp;secretKey1解密，得到原始数据&lt;br&gt;&lt;/font&gt;" style="text;html=1;strokeColor=none;fillColor=none;align=center;verticalAlign=middle;whiteSpace=wrap;rounded=0;fontColor=#FFCCFF;" vertex="1" parent="1"><mxGeometry x="99.5" y="390" width="142.5" height="30" as="geometry"/></mxCell><mxCell id="101" value="从outchan读数据，将数据根据secretKey加密，再压缩写入conn1" style="text;html=1;strokeColor=none;fillColor=none;align=center;verticalAlign=middle;whiteSpace=wrap;rounded=0;fontColor=#994C00;" vertex="1" parent="1"><mxGeometry x="400" y="395" width="90" height="30" as="geometry"/></mxCell><mxCell id="104" value="&lt;font color=&quot;#ff3333&quot;&gt;client1&lt;/font&gt;" style="text;html=1;strokeColor=none;fillColor=none;align=center;verticalAlign=middle;whiteSpace=wrap;rounded=0;" vertex="1" parent="1"><mxGeometry x="213.75" y="10" width="77.5" height="40" as="geometry"/></mxCell><mxCell id="105" value="3.与logic建立ws长连接，并将原始数据压缩后发送给logic" style="text;html=1;strokeColor=none;fillColor=none;align=center;verticalAlign=middle;whiteSpace=wrap;rounded=0;fontColor=#994C00;" vertex="1" parent="1"><mxGeometry x="97.5" y="440" width="142.5" height="30" as="geometry"/></mxCell><mxCell id="109" style="edgeStyle=orthogonalEdgeStyle;rounded=0;orthogonalLoop=1;jettySize=auto;html=1;entryX=0.5;entryY=0;entryDx=0;entryDy=0;fontColor=#00994D;" edge="1" parent="1" source="106" target="108"><mxGeometry relative="1" as="geometry"/></mxCell><mxCell id="112" style="edgeStyle=orthogonalEdgeStyle;rounded=0;orthogonalLoop=1;jettySize=auto;html=1;entryX=0;entryY=0.5;entryDx=0;entryDy=0;fontColor=#00994D;" edge="1" parent="1" source="106" target="111"><mxGeometry relative="1" as="geometry"/></mxCell><mxCell id="106" value="&lt;font color=&quot;#00994d&quot;&gt;该cid是否已经与logic建立了ws链接？&lt;/font&gt;" style="rhombus;whiteSpace=wrap;html=1;fontColor=#994C00;fillColor=#FFF4C3;" vertex="1" parent="1"><mxGeometry x="118.75" y="520" width="107.5" height="100" as="geometry"/></mxCell><mxCell id="108" value="" style="whiteSpace=wrap;html=1;aspect=fixed;fontColor=#00994D;fillColor=#FFF4C3;" vertex="1" parent="1"><mxGeometry x="97.5" y="650" width="150" height="150" as="geometry"/></mxCell><mxCell id="110" value="&lt;font color=&quot;#ffff00&quot;&gt;是，则直接通过长连接发送数据&lt;/font&gt;" style="text;html=1;strokeColor=none;fillColor=none;align=center;verticalAlign=middle;whiteSpace=wrap;rounded=0;fontColor=#00994D;" vertex="1" parent="1"><mxGeometry x="260" y="520" width="60" height="30" as="geometry"/></mxCell><mxCell id="132" style="edgeStyle=orthogonalEdgeStyle;curved=1;rounded=0;orthogonalLoop=1;jettySize=auto;html=1;exitX=1;exitY=0.25;exitDx=0;exitDy=0;entryX=0.5;entryY=0;entryDx=0;entryDy=0;fontColor=#0000FF;" edge="1" parent="1" source="111" target="130"><mxGeometry relative="1" as="geometry"/></mxCell><mxCell id="111" value="" style="whiteSpace=wrap;html=1;aspect=fixed;fontColor=#00994D;fillColor=#FFF4C3;" vertex="1" parent="1"><mxGeometry x="375" y="490" width="140" height="140" as="geometry"/></mxCell><mxCell id="113" value="&lt;font color=&quot;#3333ff&quot;&gt;否&amp;nbsp;&amp;nbsp;&lt;/font&gt;" style="text;html=1;strokeColor=none;fillColor=none;align=center;verticalAlign=middle;whiteSpace=wrap;rounded=0;fontColor=#00994D;" vertex="1" parent="1"><mxGeometry x="170" y="620" width="60" height="30" as="geometry"/></mxCell><mxCell id="114" value="1.seq++&amp;nbsp; &amp;nbsp; &amp;nbsp; &amp;nbsp; &amp;nbsp;&amp;nbsp;&lt;br&gt;2.seq1：= seq&lt;br&gt;3.sendMsg&amp;nbsp; &amp;nbsp; &amp;nbsp;" style="text;html=1;strokeColor=none;fillColor=none;align=center;verticalAlign=middle;whiteSpace=wrap;rounded=0;fontColor=#FF3399;" vertex="1" parent="1"><mxGeometry x="380" y="500" width="90" height="50" as="geometry"/></mxCell><mxCell id="115" value="4.select阻塞等待该seq请求的数据返回seqchan，将这个返回数据塞入ouchan&amp;nbsp; &amp;nbsp; &amp;nbsp;" style="text;html=1;strokeColor=none;fillColor=none;align=center;verticalAlign=middle;whiteSpace=wrap;rounded=0;fontColor=#FF3399;" vertex="1" parent="1"><mxGeometry x="380" y="570" width="95" height="30" as="geometry"/></mxCell><mxCell id="124" style="edgeStyle=orthogonalEdgeStyle;curved=1;rounded=0;orthogonalLoop=1;jettySize=auto;html=1;fontColor=#0000FF;" edge="1" parent="1" source="116" target="123"><mxGeometry relative="1" as="geometry"/></mxCell><mxCell id="116" value="&lt;font color=&quot;#0000ff&quot;&gt;1.与logic建立ws链接，将这该长连接保存为cid1--&amp;gt; logicConn，并且启动goroutine不断从logicconn读消息&lt;/font&gt;" style="text;html=1;strokeColor=none;fillColor=none;align=center;verticalAlign=middle;whiteSpace=wrap;rounded=0;fontColor=#FFFF00;" vertex="1" parent="1"><mxGeometry x="108.75" y="680" width="131.25" height="40" as="geometry"/></mxCell><mxCell id="119" style="edgeStyle=orthogonalEdgeStyle;curved=1;rounded=0;orthogonalLoop=1;jettySize=auto;html=1;entryX=0;entryY=0.6;entryDx=0;entryDy=0;entryPerimeter=0;fontColor=#0000FF;" edge="1" parent="1" source="117" target="111"><mxGeometry relative="1" as="geometry"/></mxCell><mxCell id="117" value="2.发送sayHai消息到logic，并等待logic回复的sayHai消息" style="text;html=1;strokeColor=none;fillColor=none;align=center;verticalAlign=middle;whiteSpace=wrap;rounded=0;fontColor=#0000FF;" vertex="1" parent="1"><mxGeometry x="110.75" y="750" width="120" height="30" as="geometry"/></mxCell><mxCell id="118" value="3.收到sayHai消息再进行数据发送" style="text;html=1;strokeColor=none;fillColor=none;align=center;verticalAlign=middle;whiteSpace=wrap;rounded=0;fontColor=#0000FF;" vertex="1" parent="1"><mxGeometry x="255" y="630" width="115" height="30" as="geometry"/></mxCell><mxCell id="121" value="goroutine1" style="text;html=1;strokeColor=none;fillColor=none;align=center;verticalAlign=middle;whiteSpace=wrap;rounded=0;fontColor=#0000FF;" vertex="1" parent="1"><mxGeometry x="110" y="350" width="60" height="30" as="geometry"/></mxCell><mxCell id="122" value="goroutine2" style="text;html=1;strokeColor=none;fillColor=none;align=center;verticalAlign=middle;whiteSpace=wrap;rounded=0;fontColor=#0000FF;" vertex="1" parent="1"><mxGeometry x="405" y="350" width="60" height="30" as="geometry"/></mxCell><mxCell id="123" value="" style="whiteSpace=wrap;html=1;aspect=fixed;fontColor=#0000FF;fillColor=#FFF4C3;" vertex="1" parent="1"><mxGeometry x="320" y="680" width="120" height="120" as="geometry"/></mxCell><mxCell id="126" style="edgeStyle=orthogonalEdgeStyle;curved=1;rounded=0;orthogonalLoop=1;jettySize=auto;html=1;entryX=1;entryY=0.625;entryDx=0;entryDy=0;entryPerimeter=0;fontColor=#0000FF;" edge="1" parent="1" source="125" target="111"><mxGeometry relative="1" as="geometry"/></mxCell><mxCell id="128" value="" style="edgeStyle=orthogonalEdgeStyle;curved=1;rounded=0;orthogonalLoop=1;jettySize=auto;html=1;fontColor=#0000FF;" edge="1" parent="1" source="125"><mxGeometry relative="1" as="geometry"><mxPoint x="380" y="815" as="targetPoint"/></mxGeometry></mxCell><mxCell id="125" value="不断从logicConn读消息，并且将读到的消息根据seq对应起来，将该消息存入该seq请求的seqchan中" style="text;html=1;strokeColor=none;fillColor=none;align=center;verticalAlign=middle;whiteSpace=wrap;rounded=0;fontColor=#0000FF;" vertex="1" parent="1"><mxGeometry x="330" y="720" width="100" height="30" as="geometry"/></mxCell><mxCell id="129" value="gateway" style="text;html=1;strokeColor=none;fillColor=none;align=center;verticalAlign=middle;whiteSpace=wrap;rounded=0;fontColor=#0000FF;" vertex="1" parent="1"><mxGeometry x="388" y="90" width="60" height="30" as="geometry"/></mxCell><mxCell id="133" style="edgeStyle=orthogonalEdgeStyle;curved=1;rounded=0;orthogonalLoop=1;jettySize=auto;html=1;entryX=1;entryY=0.5;entryDx=0;entryDy=0;fontColor=#0000FF;" edge="1" parent="1" source="130" target="123"><mxGeometry relative="1" as="geometry"/></mxCell><mxCell id="130" value="" style="whiteSpace=wrap;html=1;aspect=fixed;fontColor=#0000FF;fillColor=#FF99CC;" vertex="1" parent="1"><mxGeometry x="512.5" y="870" width="190" height="190" as="geometry"/></mxCell><mxCell id="131" value="logic" style="text;html=1;strokeColor=none;fillColor=none;align=center;verticalAlign=middle;whiteSpace=wrap;rounded=0;fontColor=#0000FF;" vertex="1" parent="1"><mxGeometry x="578" y="890" width="60" height="30" as="geometry"/></mxCell></root></mxGraphModel></diagram><diagram id="MOkpGjBoI93LOLOyfAv2" name="Page-2"><mxGraphModel dx="1836" dy="818" grid="1" gridSize="10" guides="1" tooltips="1" connect="1" arrows="1" fold="1" page="1" pageScale="1" pageWidth="850" pageHeight="1100" math="0" shadow="0"><root><mxCell id="LMXiir5wbDYlnCreqTEl-0"/><mxCell id="LMXiir5wbDYlnCreqTEl-1" parent="LMXiir5wbDYlnCreqTEl-0"/></root></mxGraphModel></diagram></mxfile>